# xmcd
#
# Track frame offsets: 
#        225
#        14688
#        34601
#        45352
#        62752
#        79813
#        97929
#        112087
#        125955
#        142513
#
# Disc length: 2113 seconds
#
# Revision: 0
# Processed by: cddbd v1.5.1PL0 Copyright (c) Steve Scherf et al.
# Submitted via: ExactAudioCopy v0.95a5
#
DISCID=7f083e0a
DTITLE=Jessi Colter - Jessi
DYEAR=1976
DGENRE=Country
TTITLE0=The hand that rocks the cradle
TTITLE1=One woman man
TTITLE2=It's morning (and I still love you)
TTITLE3=Rounder
TTITLE4=Here I am
TTITLE5=Without you
TTITLE6=Darlin' it's yours
TTITLE7=Would you walk with me (to the lilies)
TTITLE8=All my life, I've been your lady
TTITLE9=I see your face (in the morning window)
EXTD=(c)1976 Capitol Records/EMI\nKatalog: ST-11477\n\nAll songs compo
EXTD=sed by Jessi Colter\nAll selections published by Baron Music Publ
EXTD=ishing Co. - BMI\nEngineered by John Mills and Kyle Lehning\nProduc
EXTD=ed and arranged by Ken Mansfield and Waylon Jennings/ A Hometown 
EXTD=Production\nRecorded at Glasers Sound Studio, Nashville and Sound L
EXTD=abs, Hollywood\n(p)1975, 1976 Capitol Records, Inc.\n
EXTT0=
EXTT1=
EXTT2=
EXTT3=
EXTT4=
EXTT5=
EXTT6=
EXTT7=
EXTT8=
EXTT9=
PLAYORDER=
